<svg xmlns="http://www.w3.org/2000/svg" viewBox="0 0 128 128" width="128" height="128">
  <circle cx="64" cy="64" r="60" fill="#4A90E2"/>
  <path fill="#FFFFFF" d="M64 20C40.3 20 21 39.3 21 63s19.3 43 43 43 43-19.3 43-43-19.3-43-43-43zm-4.3 75.9c-17-2.1-30.1-16.5-30.1-33.9 0-2.7.3-5.2.9-7.7l26.3 20.3v4.3c0 4.7 3.9 8.6 8.6 8.6v8.4zm29.5-10.9c-1.1-3.5-4.3-6-8.2-6h-4.3V59.4c0-2.4-1.9-4.3-4.3-4.3H45.1v-8.6h8.6c2.4 0 4.3-1.9 4.3-4.3V30h8.6c4.7 0 8.6-3.9 8.6-8.6v-1.8c12.6 5.1 21.5 17.4 21.5 31.8 0 8.9-3.4 17-9.1 23.1z"/>
</svg>
